<?xml version="1.0" encoding="utf-8"?>
<!-- Generator: Adobe Illustrator 28.1.0, SVG Export Plug-In . SVG Version: 6.00 Build 0)  -->
<svg version="1.1" id="Layer_1" xmlns="http://www.w3.org/2000/svg" xmlns:xlink="http://www.w3.org/1999/xlink" x="0px" y="0px"
	 viewBox="0 0 848.4 906.7" style="enable-background:new 0 0 848.4 906.7;" xml:space="preserve">
<style type="text/css">
	.st0{fill:#FFFFFF;}
	.st1{fill:#63EA71;}
	.st2{fill-rule:evenodd;clip-rule:evenodd;fill:#63EA71;}
	.st3{fill-rule:evenodd;clip-rule:evenodd;fill:#27B079;}
	.st4{fill-rule:evenodd;clip-rule:evenodd;fill:#08493C;}
</style>
<g>
	<g>
		<path d="M101.3,558.1c0-0.7-8.5,32.5-8.5,31.7c1.5-1.7,15.8-62.2,17.1-64.1c12.6-18.7,46.4-85.1,59.2-103.6
			c9.2-13.3,18.6-26.7,28.9-39.2c13.1-15.9,24-33.1,34-50.9c-7.6-8.2-10-9.5-20.4-10.2c-4.6-0.3-9.3-0.5-13.9-0.8
			c-3.8-0.3-7.5-0.8-11.3-1.3c-0.1-0.4-0.1-0.8-0.2-1.3c24.9-16.2,49.9-32.3,75.4-48.9c-7.6-4.1-14.4-7.8-21.1-11.4
			c3.5-1.1,6.4-1.3,9.2-1.1c11.6,0.9,23.2,1.9,34.7,2.8c7,0.6,10.6-3.7,8.7-10.3c-5.1-16.9-10.2-33.9-15.2-50.8
			c-2.8-9.3-5.5-18.6-8.5-28.8c22.5,5.8,44,11.3,66.6,17.1c-1.2-6.4-2.6-11.8-2.9-17.2c-0.2-3.2,1-6.9,2.7-9.6
			c1.5-2.3,4.7-3.8,7.3-5.2c47.2-26,94.5-52,141.8-77.9c8.5-4.7,8.7-5.9,4-14.5c-7.6-13.9-15.1-28-22.6-42c-1-1.8-1.3-4.1-2.3-7.5
			c3.1,1.7,4.9,2.6,6.5,3.6c32.6,21,65.3,41.9,97.7,63.1c4,2.6,7.6,6.1,10.4,9.8c12.1,15.9,23.9,32.1,35.9,48.2
			c1.5,2,3.4,3.8,6.1,6.7c1.5-16.5,2.9-31.4,4.2-46.4c0.5-0.1,1-0.3,1.6-0.4c1.3,1.3,2.8,2.5,4,3.8c22.7,25.7,45.5,51.4,68.1,77.2
			c2.3,2.7,4.3,3.4,7.8,2.4c11-3.1,22.1-5.8,33.2-8.6c3-0.8,6-1.3,9.6-2.1c-9,30.4-17.8,60-26.8,90.3c18.9-1.4,37-2.7,55.2-4
			c0.1,0.5,0.2,1,0.4,1.5c-6.7,3.8-13.4,7.5-20.7,11.6c25.7,16.7,50.7,32.9,75.6,49.2c-5.9,1.5-11.2,2.5-16.5,2.3
			c-13.3-0.5-24.1,3.6-33.5,13.5c-9.4,9.9-20.2,18.5-30.6,27.9c6,5.6,11.6,10.8,17.3,16.2c-1,1.4-1.7,2.6-2.6,3.7
			c-9.4,11.9-18.5,24.1-28.3,35.7c-5.3,6.2-8.3,12.4-6.6,20.7c0.6,3.1,1.2,5.2,4.1,6.6c9.3,4.6,18.1,10.3,27.7,14.1
			c9.8,3.9,13.6,9.7,12,20.2c-1.7,11.4,1.4,22.1,6,32.7c6.7,15.2,12.6,30.7,18.6,46.2c0.8,2,0.5,4.9-0.4,6.8
			c-2.3,5-5.6,9.5-7.8,14.5c-6.8,14.8-8,30.3-15.8,44.6c-16,29.5-54.9,58.2-71,87.7c-6.7,12.3,5.8,25.7,0.4,38.6
			c-0.5,1.1-0.8,2.4-0.8,3.6c-0.2,3.7-2.4,5.4-5.6,6.8c-17.5,7.7-35,15.4-52.2,23.6c-5.2,2.5-9.5,1.8-14.1-0.6
			c-1.6-0.8-3.1-1.8-4.6-2.7c-22.5-14.5-47.1-25.8-66.3-45c-2.1-2.1-4-4.6-5.3-7.2c-4-8.3-9.9-10.9-19.4-7.5
			c4,12.2,2.1,26.2,12,38.1c-2.6-1-4.1-1.5-5.5-2.2c-12.7-6.2-25.4-12.3-38-18.6c-6-3-12.7-5.5-17.7-9.8
			c-38.5-33.9-76.8-68.1-115-102.3c-3.1-2.7-5.8-3.9-9.9-3c-49.5,9.9-99.1,19.7-148.7,29.5c-10.8,2.1-21.6,4.2-33.5,6.6
			c27.4-49.8,28.6-26,55.6-75.1c-1.4-0.4-2.4-0.9-3.4-1.1c-32.1-6.4-64.1-12.9-96.2-19.2C125.2,562.4,113.2,560.3,101.3,558.1z"/>
		<path class="st0" d="M101.3,558.1h6.4c0-0.3,0-0.7-0.2-1.7c-0.2-0.5-0.3-1.3-1.2-2.4c-0.4-0.5-1.1-1.2-2-1.6c-0.9-0.5-2-0.8-3-0.8
			c-1.5,0-2.6,0.5-3.3,0.9c-1.3,0.8-1.6,1.4-1.9,1.7c-0.5,0.7-0.5,0.9-0.7,1.1l-0.2,0.6c-0.1,0.4-0.2,0.6-0.3,1
			c-0.7,2.5-2.7,10.2-4.6,17.4c-0.9,3.6-1.9,7-2.5,9.5c-0.3,1.3-0.6,2.3-0.8,3l-0.2,0.7l0,0l3.9,1.3l-3.9-1.5l-0.1,0.2l3.9,1.3
			l-3.9-1.5l5.7,2.2l-5.4-2.8l-0.3,0.6l5.7,2.2l-5.4-2.8l5.6,2.9l-5-3.9c-0.4,0.5-0.5,0.8-0.6,1l5.6,2.9l-5-3.9l5,3.9l-3.9-5.1
			c-0.6,0.5-0.9,0.9-1.2,1.1l5,3.9l-3.9-5.1l3.9,5.1l-2.5-5.9c-0.6,0.3-1.1,0.6-1.4,0.8l3.9,5.1l-2.5-5.9l2.5,5.9v-6.4
			c-1,0-1.9,0.2-2.5,0.5l2.5,5.9v-6.4v6.4l4.9,4.2c0.6-0.7,0.7-1,0.9-1.3c0.3-0.6,0.4-0.9,0.5-1.2c0.5-1.3,0.9-2.9,1.6-5.1
			c2.1-7.7,5.7-22,8.9-34.7c1.6-6.3,3.1-12.2,4.3-16.6c0.6-2.2,1.1-4,1.4-5.2c0.2-0.6,0.3-1.1,0.4-1.4l0-0.1l0,0l-2.9-1.1l2.8,1.3
			l0.1-0.2l-2.9-1.1l2.8,1.3l-5.1-2.3l4.6,3.1c0.3-0.5,0.4-0.7,0.5-0.8l-5.1-2.3l4.6,3.1c3.4-5,7.9-12.7,13-21.9
			c7.7-13.8,16.9-30.8,25.4-46.2c4.2-7.7,8.3-14.9,11.8-21c3.6-6.1,6.7-11.2,8.9-14.4c9.2-13.3,18.4-26.6,28.5-38.8
			c13.5-16.3,24.5-33.9,34.7-51.9l2.3-4.1l-3.1-3.4c-2-2.1-3.7-3.9-5.4-5.4c-2.6-2.3-5.5-4.1-8.7-5.2c-3.2-1-6.5-1.4-10.6-1.7
			c-4.8-0.3-9.5-0.5-13.9-0.8c-3.5-0.3-7.2-0.8-11.1-1.2l-0.7,6.4l6.3-0.9c-0.1-0.4-0.1-0.8-0.2-1.3l-6.3,0.9l3.5,5.4
			c24.9-16.2,49.9-32.3,75.4-48.9l9.1-5.9l-9.5-5.1c-7.6-4.1-14.4-7.8-21.1-11.4l-3.1,5.6l1.9,6.1c2.2-0.7,3.7-0.9,5.3-0.9
			c0.5,0,1,0,1.5,0.1c11.5,0.9,23.1,1.9,34.7,2.8c0.6,0,1.2,0.1,1.7,0.1c3.6,0,7.3-1,10.1-3.5c1.4-1.2,2.5-2.8,3.2-4.5
			c0.7-1.7,1-3.6,1-5.4c0-1.8-0.3-3.5-0.8-5.2l0,0c-5.1-16.9-10.2-33.9-15.2-50.8c-2.8-9.3-5.5-18.6-8.5-28.7l-6.1,1.8l-1.6,6.2
			c22.5,5.8,44,11.3,66.6,17.1l9.7,2.5l-1.8-9.8c-1.2-6.7-2.6-11.9-2.8-16.4l0,0l0-0.3c-0.1-1.5,0.7-4.1,1.7-5.5
			c0,0,0.4-0.5,1.3-1.1c0.9-0.6,2.2-1.3,3.7-2.1c47.2-26,94.5-52,141.8-77.9c2.6-1.4,4.6-2.6,6.6-4.3c1-0.9,1.9-2,2.7-3.4
			c0.7-1.4,1.1-3.1,1.1-4.7c0-2.2-0.6-4-1.3-5.7c-0.7-1.7-1.5-3.3-2.6-5.1c-7.6-13.9-15.1-27.9-22.5-41.9c-0.1-0.2-0.3-0.7-0.6-1.8
			c-0.3-1.1-0.6-2.6-1.2-4.5l-6.1,1.8l-3.1,5.6c3.3,1.8,5,2.7,6.1,3.4c32.6,21,65.2,41.9,97.7,63c3.2,2.1,6.4,5.1,8.8,8.4
			c12.1,15.8,23.8,32,35.8,48.1c2.1,2.7,4,4.5,6.5,7.2l9.8,10.6l1.3-14.4c1.5-16.5,2.9-31.4,4.2-46.4l-6.4-0.6l1.7,6.2
			c0.5-0.1,1-0.3,1.6-0.4l-1.7-6.2l-4.4,4.6c1.6,1.5,2.8,2.6,3.6,3.4c22.7,25.7,45.5,51.4,68.1,77.2c1.1,1.3,2.4,2.5,4.1,3.5
			c1.7,1,3.9,1.5,5.8,1.5c1.6,0,3-0.3,4.4-0.7l0,0c10.8-3.1,21.9-5.8,33-8.6c2.7-0.7,5.7-1.3,9.4-2.1l-1.4-6.3l-6.1-1.8
			c-9,30.4-17.8,60-26.8,90.3l-2.6,8.9l9.2-0.7c18.9-1.4,37-2.7,55.2-4l-0.5-6.4l-6.2,1.6c0.1,0.5,0.2,1,0.4,1.5l6.2-1.6l-3.1-5.6
			c-6.7,3.8-13.4,7.5-20.7,11.6l-9.2,5.2l8.9,5.8c25.7,16.7,50.7,32.9,75.6,49.2l3.5-5.4l-1.6-6.2c-5.1,1.3-9.5,2.1-13.5,2.1l-1.1,0
			c-0.8,0-1.6,0-2.4,0c-6.9,0-13.4,1.2-19.5,3.8c-6.1,2.6-11.6,6.5-16.5,11.7c-9,9.5-19.6,18-30.2,27.6l-5.2,4.7l5.1,4.8
			c6,5.6,11.6,10.8,17.3,16.2l4.4-4.7l-5.3-3.7c-1.1,1.6-1.8,2.7-2.4,3.4c-9.5,12-18.5,24.2-28.2,35.5c-2.4,2.8-4.5,5.7-6.1,9.1
			c-1.6,3.4-2.5,7.1-2.5,11.2c0,1.9,0.2,3.9,0.6,5.9l0,0c0.3,1.6,0.7,3.4,1.8,5.6c0.6,1.1,1.4,2.2,2.4,3.1c1,0.9,2.1,1.7,3.3,2.3
			c8.9,4.4,17.8,10.2,28.1,14.3c3.6,1.4,5.6,2.9,6.7,4.3c0.6,0.7,0.9,1.4,1.2,2.3c0.3,0.9,0.5,2,0.5,3.4c0,0.9-0.1,2-0.3,3.3
			c-0.4,2.5-0.5,5-0.5,7.4c0,10.4,3.1,19.9,7,28.8c6.6,15,12.5,30.4,18.5,45.9l0.5-0.2l-0.5,0.1l0,0.1l0.5-0.2l-0.5,0.1l0,0.5
			c0,0.5-0.2,1.3-0.2,1.4l0,0c-1.9,4.2-5.2,8.7-7.8,14.5c-3.7,8.1-5.7,16-7.8,23.4c-2.1,7.5-4.2,14.4-7.7,20.8
			c-7.4,13.6-20.7,28-34.5,42.5c-13.7,14.6-27.8,29.3-36.5,45.2c-2.1,3.8-2.8,7.7-2.8,11.4c0,4.8,1.2,9.1,2.1,12.9
			c1,3.8,1.7,7.2,1.7,10c0,1.8-0.3,3.3-0.9,4.9c-0.8,1.9-1.2,3.8-1.3,5.9l0,0.3l0,0l0.4,0.1l-0.4-0.2l-0.1,0.1l0.4,0.1l-0.4-0.2
			l0.4,0.2l-0.3-0.3l0,0l0.4,0.2l-0.3-0.3l-0.1,0.1c-0.1,0.1-0.7,0.5-1.8,1c-17.5,7.7-35,15.4-52.4,23.6c-1.5,0.7-2.6,0.9-3.6,0.9
			c-1.3,0-2.8-0.4-4.8-1.4c-1.3-0.7-2.6-1.5-4.1-2.4c-11.5-7.4-23.3-13.9-34.5-20.8c-11.2-6.9-21.7-14.3-30.8-23.4
			c-1.7-1.7-3.2-3.7-4-5.4c-1.7-3.6-3.9-6.7-7-9c-3.1-2.3-7-3.6-10.8-3.5c-3.1,0-6.2,0.7-9.4,1.8l-5.9,2.1l2,5.9
			c1.7,5.1,2.3,11.4,3.6,18.4c1.3,6.9,3.6,14.7,9.6,21.8l4.9-4.1l2.4-6c-2.8-1.1-4.3-1.6-5-2c-12.7-6.2-25.4-12.3-37.9-18.5
			c-3.2-1.6-6.4-3-9.2-4.4c-2.8-1.4-5.2-2.9-7.1-4.5c-38.5-33.8-76.7-68-114.9-102.3c-1.5-1.3-3.1-2.6-5.1-3.5
			c-2-0.9-4.3-1.5-6.6-1.5c-1.3,0-2.5,0.1-3.8,0.4c-49.5,9.9-99.1,19.7-148.7,29.5c-10.8,2.1-21.6,4.2-33.5,6.6l1.2,6.3l5.6,3.1
			c6.7-12.3,11.8-19.8,15.8-25c3.1-3.9,5.6-6.4,8.2-8.8c3.8-3.6,8-6.9,13-12.9c5-6,10.8-14.4,18.5-28.4l3.8-6.9l-7.5-2.3
			c-1.1-0.3-2.2-0.8-4.1-1.2c-32-6.4-64.1-12.9-96.2-19.3c-12-2.4-24-4.4-35.9-6.6L101.3,558.1h6.4H101.3l-1.2,6.3
			c12,2.2,23.9,4.2,35.7,6.6c32.1,6.3,64.1,12.8,96.2,19.2c0.1,0,1,0.3,2.7,0.9l1.9-6.1l-5.6-3.1c-6.6,12.1-11.6,19.5-15.6,24.5
			c-3,3.8-5.5,6.3-8.1,8.7c-3.8,3.5-8,6.9-13.1,13c-5.1,6.1-10.9,14.6-18.8,28.8l-6.6,12l13.5-2.6c11.9-2.3,22.7-4.4,33.5-6.6
			c49.6-9.8,99.2-19.6,148.7-29.5c0.6-0.1,1-0.1,1.3-0.1c0.5,0,0.7,0.1,1.2,0.3c0.4,0.2,1.1,0.6,2,1.4
			c38.2,34.2,76.4,68.5,115,102.4c3.1,2.7,6.5,4.7,9.8,6.3c3.3,1.6,6.5,3,9.3,4.4c12.7,6.3,25.4,12.5,38.1,18.6
			c2,0.9,3.4,1.4,5.9,2.4l23.3,9.2l-16.1-19.3c-4-4.8-5.6-9.9-6.8-16c-1.2-6-1.7-12.8-4-20l-6.1,2l2.1,6c2.2-0.8,3.9-1.1,5.2-1.1
			c1.5,0,2.2,0.3,3.1,1c0.9,0.7,2,2,3.2,4.3c1.7,3.5,4,6.4,6.5,8.9c10.2,10.1,21.6,18,33.1,25.2c11.6,7.2,23.3,13.6,34.3,20.7
			c1.6,1,3.3,2.1,5.2,3c3.1,1.6,6.7,2.9,10.7,2.9c3,0,6.1-0.7,9.1-2.2c17.1-8.1,34.6-15.8,52.1-23.5c1.9-0.9,4.1-1.9,6.1-4
			c1-1,1.8-2.4,2.4-3.8c0.6-1.5,0.9-3,0.9-4.6c0-0.4,0.1-1,0.3-1.4c1.4-3.3,1.9-6.7,1.9-9.9c0-4.9-1.2-9.2-2.1-13.1
			c-1-3.8-1.7-7.2-1.7-9.8c0-2,0.3-3.6,1.2-5.2c7.4-13.6,20.8-28,34.5-42.5c13.7-14.6,27.8-29.3,36.4-45.2
			c4.3-7.9,6.6-15.8,8.8-23.4c2.1-7.6,4.1-14.8,7.2-21.6c1.9-4.2,5.1-8.7,7.8-14.4l0,0c1-2.2,1.4-4.4,1.4-6.7c0-1.6-0.2-3.3-0.9-5.1
			c-6-15.5-11.9-31.1-18.7-46.5c-3.6-8.1-6-15.9-6-23.6c0-1.8,0.1-3.6,0.4-5.5c0.3-1.8,0.4-3.5,0.4-5.2c0-5-1.4-9.9-4.4-13.6
			c-3-3.8-7.2-6.3-12-8.2c-8.8-3.5-17.5-9-27.2-13.9l-0.2-0.1l0,0l-0.3,0.4l0.4-0.3l-0.1-0.1l-0.3,0.4l0.4-0.3l-0.4,0.3l0.4-0.2l0,0
			l-0.4,0.3l0.4-0.2l0-0.1c-0.1-0.2-0.3-0.9-0.5-2.1l0,0c-0.3-1.2-0.4-2.3-0.4-3.3c0-2.1,0.4-3.8,1.3-5.8c0.9-1.9,2.3-4,4.2-6.2
			c10-11.8,19.2-24,28.5-35.9c1.2-1.5,1.9-2.8,2.8-4l3.2-4.5l-4-3.8c-5.7-5.4-11.3-10.6-17.3-16.2l-4.4,4.7l4.3,4.8
			c10.2-9.2,21.1-17.9,30.9-28.3c3.9-4.1,7.9-6.9,12.3-8.8c4.3-1.8,9-2.7,14.4-2.7c0.6,0,1.2,0,1.9,0c0.5,0,1.1,0,1.6,0
			c5.7,0,11.1-1.1,16.8-2.5l14-3.7l-12.2-7.9c-25-16.2-49.9-32.5-75.6-49.2l-3.5,5.4l3.1,5.6c7.3-4.1,14-7.9,20.7-11.6l4.3-2.4
			l-1.2-4.7c-0.1-0.5-0.2-1-0.4-1.5l-1.3-5.2l-5.4,0.4c-18.2,1.3-36.3,2.6-55.2,4l0.5,6.4l6.1,1.8c9-30.3,17.8-59.9,26.8-90.3
			l3.1-10.4l-10.6,2.3c-3.6,0.8-6.6,1.4-9.8,2.2c-11,2.8-22.2,5.5-33.3,8.7l0,0c-0.6,0.2-0.9,0.2-0.9,0.2v0.8l0.2-0.8l-0.2,0v0.8
			l0.2-0.8l-0.3,1.1l0.5-1l-0.2-0.1l-0.3,1.1l0.5-1l-0.2,0.3l0.2-0.3l0,0l-0.2,0.3l0.2-0.3c0,0-0.3-0.2-0.8-0.7
			c-22.6-25.8-45.4-51.5-68.1-77.2c-1.7-1.9-3.3-3.1-4.4-4.2l-2.6-2.5l-3.5,0.9c-0.5,0.1-1,0.3-1.6,0.4l-4.3,1.2l-0.4,4.4
			c-1.4,14.9-2.7,29.9-4.2,46.4l6.4,0.6l4.7-4.3c-2.9-3.1-4.7-4.8-5.7-6.2c-11.9-16-23.7-32.2-35.9-48.2c-3.3-4.3-7.3-8.3-12-11.3
			c-32.5-21.2-65.2-42.1-97.8-63.1c-2.1-1.3-3.9-2.2-6.9-3.8L453.3,0l4.4,15c0.4,1.5,0.7,2.8,1.1,4.1c0.4,1.3,0.8,2.9,1.7,4.5
			c7.4,14.1,15,28.1,22.6,42.1c0.9,1.7,1.6,3.1,2,3.9c0.2,0.4,0.3,0.7,0.3,0.8l0,0.1l1.3-0.2h-1.3l0,0.2l1.3-0.2h-1.3h2.6l-2.3-1.2
			l-0.3,1.2h2.6l-2.3-1.2l1.8,0.9l-1.6-1.2l-0.2,0.3l1.8,0.9l-1.6-1.2l0.5,0.4l-0.5-0.4l0,0.1l0.5,0.4l-0.5-0.4
			c0,0.1-1.5,1.2-4.3,2.7c-47.3,26-94.5,51.9-141.8,77.9c-1.2,0.7-2.7,1.4-4.4,2.5c-1.7,1.1-3.6,2.5-5.1,4.8
			c-2.4,3.7-3.8,7.9-3.8,12.5l0,0.9l0,0c0.3,6.4,1.9,12,3,18l6.3-1.1l1.6-6.2c-22.6-5.8-44.1-11.3-66.6-17.1l-11-2.8l3.2,10.8
			c3,10.1,5.8,19.4,8.6,28.8c5.1,16.9,10.2,33.9,15.2,50.8l0,0c0.2,0.7,0.3,1.3,0.3,1.6l-0.1,0.4l0.4,0.1l-0.3-0.3l-0.1,0.1l0.4,0.1
			l-0.3-0.3l0.2,0.1l-0.1-0.2l0,0l0.2,0.1l-0.1-0.2c0,0-0.5,0.3-1.6,0.3l-0.7,0c-11.6-0.9-23.1-1.9-34.8-2.8
			c-0.8-0.1-1.6-0.1-2.5-0.1c-2.8,0-5.9,0.4-9.2,1.5l-14.4,4.5l13.3,7.2c6.8,3.7,13.6,7.3,21.1,11.4l3.1-5.6l-3.5-5.4
			c-25.5,16.5-50.5,32.7-75.4,48.9l-3.5,2.2l0.6,4.1c0.1,0.4,0.1,0.8,0.2,1.3l0.7,4.9l4.9,0.6c3.6,0.4,7.5,1,11.5,1.3
			c4.9,0.4,9.5,0.5,14,0.8c2.5,0.2,4.4,0.4,5.8,0.7c2.1,0.4,3,0.8,4.4,1.8c1.4,1,3.3,2.7,6,5.8l4.7-4.3l-5.6-3.1
			c-9.9,17.6-20.6,34.5-33.4,50c-10.5,12.8-19.9,26.3-29.2,39.6c-3.5,5-8,12.7-13.2,21.9c-7.8,13.8-17,30.8-25.5,46.2
			c-4.2,7.7-8.2,14.9-11.8,21.1c-3.5,6.2-6.6,11.3-8.8,14.5c-0.4,0.6-0.5,0.8-0.6,1.1c-0.2,0.5-0.3,0.7-0.4,1.1
			c-0.4,1.2-0.8,2.8-1.4,5c-2.1,7.7-5.6,22-8.8,34.7c-1.6,6.3-3.1,12.2-4.3,16.5c-0.6,2.2-1.1,4-1.5,5.2c-0.2,0.6-0.3,1.1-0.4,1.3
			l0,0.1l2.3,0.9l-2.2-1.1L87,587l2.3,0.9l-2.2-1.1l5.1,2.5l-4.3-3.7c-0.6,0.8-0.7,1-0.8,1.2l5.1,2.5l-4.3-3.7l-9.1,10.6h14
			c1.5,0,2.6-0.5,3.3-0.9c1.3-0.8,1.6-1.4,1.9-1.7c0.5-0.7,0.6-0.9,0.7-1.1l0.2-0.6c0.1-0.4,0.2-0.6,0.3-1
			c0.7-2.5,2.7-10.2,4.6-17.4c0.9-3.6,1.8-7,2.5-9.5c0.3-1.3,0.6-2.3,0.8-3l0.2-0.7l0,0l-3.9-1.3l3.8,1.5l0.1-0.2l-3.9-1.3l3.8,1.5
			l-5.7-2.2l5.4,2.8l0.3-0.6l-5.7-2.2l5.4,2.8L101.3,558.1l5,3.9c0.4-0.5,0.5-0.8,0.6-1L101.3,558.1l5,3.9L101.3,558.1l3.9,5.1
			c0.6-0.5,0.9-0.9,1.2-1.1L101.3,558.1l3.9,5.1L101.3,558.1l2.5,5.9c0.6-0.3,1.1-0.6,1.4-0.8L101.3,558.1l2.5,5.9L101.3,558.1
			l0,6.4c1,0,1.9-0.2,2.5-0.5L101.3,558.1l0,6.4L101.3,558.1l-3,5.6c0.9,0.5,2,0.8,3,0.8L101.3,558.1l-3,5.6L101.3,558.1l-5.7,2.9
			c0.4,0.7,1.1,1.9,2.7,2.7L101.3,558.1l-5.7,2.9L101.3,558.1l-6.4,0.8c0.1,0.4,0.1,1,0.6,2.1L101.3,558.1l-6.4,0.8L101.3,558.1
			h-6.4c0,0.2,0,0.4,0.1,0.8L101.3,558.1h-6.4v5.3l5.3,1L101.3,558.1z"/>
		<polygon class="st1" points="730.5,391.6 671.5,343.1 632.5,347.6 611.5,375.1 649,376.6 696.5,411.1 721,403.6 		"/>
		<path class="st1" d="M684.7,446.8l-28.7-4.7l-8.5-34.5L627,424.1l-6.5,42.5l76,28L674,522l22,35.5l-6,18.5l76.8-21.4L750.9,513
			l-7.5,2.5l-32.4-18.2l-1.6-26.3l34.3,19.7l0.7-13.7l-44-22.2c0,0-0.7-28.2-0.7-27.5S684.7,446.8,684.7,446.8z"/>
		<path class="st0" d="M50.7,898.2V743L57,698H12.3l40.5-119.3h41.9l17.2-50.7h98.2l6,18v-17.6h155.6v-7.4h196.1v82.4h-8.1V617h-8.1
			v98.9h235.8v183H50.7V898.2z M366.1,711v-15.5h-27.5V711H366.1z"/>
		<path d="M559,535c0.1,19.7,0.2,39.4,0.2,59.2h-8.1v13.7h-8.1V724h6.7h82.4h32.4h114.7c0,55.3,0,110.5,0,165.8H645.5h-13h-82.4
			h-32.4h-82.4H403h-82.4h-32.4h-82.4h-32.4H59.1V743.7l7.4-54.2H23.9l34.8-102.1h41.9l17.2-50.7h86.2l20.8,61.2
			c0-20.5,0-41.1,0-61.6C336.3,535.9,447.7,535.5,559,535z M330.2,719.8h39.8v-32.7h-39.8V719.8 M151.3,724h20.4l-10.6-31L151.3,724
			 M576.5,511.8h-17.2H380.1h-17.2v7.4H224.6h-8.4h-12h-86.2h-12.3l-3.9,11.6l-13.4,39.1H58.8H46.5l-3.9,11.6L7.7,683.5L0,706.4
			h23.9h22.9l-4.6,34.8v1.1v1.1v146.1v17.2h17.2h114.7h32.4H289h32.4h82.4h32.4h82.4h32.4h82.4h13H780h17.2v-17.2v-78.5v-16.5V724
			v-17.2H780H665.2h-32.4h-71.8v-81.7h8.1v-13.7h8.1v-17.2V529v-17.2H576.5z"/>
		<path d="M371,577.9v-15.8H250.3v158h48.2v-63h72.2v-15.8h12v-63.4H371z M334.7,625.5h-36.3v-31.7h36.3V625.5z"/>
		<path d="M533.6,562.3v13.1h-7.7v13.1h-8.1v13.4h-64.1v26.2h64.1V661h-64.1v26.2h64.1v32.9H405.8c0-43.9,0.1-87.7,0.1-131.6h8.1
			v-13.1h7.7v-13.1H533.6z"/>
		<path d="M84.8,749.7v114.7h38.4v-38.4h19v38.4h38.4V749.7H84.8z M142.2,806.7h-19v-38h19V806.7z"/>
		<path d="M199.6,749.7v114.7h38.4v-38.4h19v38.4h38.4v-38.4h-19v-19h19v-57.4H199.6z M237.6,806.7v-38h19v38.4h-19V806.7z"/>
		<polygon points="314,749.7 314,864.1 409.7,864.1 409.7,826.1 371.3,826.1 371.3,845.1 352.3,845.1 352.3,768.7 371.3,768.7 
			371.3,787.7 409.7,787.7 409.7,749.7 		"/>
		<path d="M428.7,749.7v114.7h38.4v-38.4h19v38.4h38.4V749.7H428.7z M486.1,806.7h-19v-38h19V806.7z"/>
		<path d="M543.5,749.7v114.7h76.4v-19h19v-95.7H543.5z M600.8,845.1h-19v-76.4h19V845.1z"/>
		<polygon points="753.6,768.7 753.6,749.7 657.8,749.7 657.8,864.1 753.6,864.1 753.6,826.1 715.2,826.1 715.2,845.1 696.2,845.1 
			696.2,806.7 734.6,806.7 734.6,787.7 696.2,787.7 696.2,768.7 		"/>
		<polygon points="59.8,663.8 146.8,663.8 164.4,612.8 77.1,612.8 		"/>
		<polygon class="st2" points="155.2,629.3 113.3,629.3 119,612.8 160.9,612.8 		"/>
		<polygon class="st3" points="107.4,647.3 149.2,647.3 155.2,629.3 113.3,629.3 		"/>
		<polygon class="st4" points="149.2,647.3 143.6,663.8 101.7,663.8 107.4,647.3 		"/>
		<polygon points="84.5,718 126.4,718 143.6,663.8 101.7,663.8 		"/>
		<polygon points="160.9,612.8 119,612.8 136.6,562.1 185.5,562.1 230.5,694.1 209.1,694.1 209.1,714.5 195.7,714.5 178.5,663.8 
			143.6,663.8 		"/>
		<polygon class="st1" points="678,615.5 697.7,636.1 742.1,628.3 760.7,586.2 		"/>
	</g>
</g>
</svg>
