<?xml version="1.0" encoding="utf-8"?>
<!-- Generator: Adobe Illustrator 26.0.1, SVG Export Plug-In . SVG Version: 6.00 Build 0)  -->
<svg version="1.1" id="Camada_2" xmlns="http://www.w3.org/2000/svg" xmlns:xlink="http://www.w3.org/1999/xlink" x="0px" y="0px"
	 viewBox="0 0 1280 402" style="enable-background:new 0 0 1280 402;" xml:space="preserve">
<style type="text/css">
	.st0{fill:#FFFFFF;}
	.st1{fill-rule:evenodd;clip-rule:evenodd;fill:#FFFFFF;}
</style>
<g>
	<path class="st0" d="M156.5,228.1h47.6l-54.2-54.3l54.9-54.3l14.9-14.5h-49.4l-62.9,63c-3.2,3.2-3.2,8.3,0,11.5L156.5,228.1z"/>
	<path class="st1" d="M393.3,198.5c4.1-2.3,7.5-5.3,9.9-8.7c2.8-3.9,4.2-8.4,4.2-13.3c0-9.2-3.4-16.4-10.2-21.3
		c-6.7-4.9-15.9-7.4-27.4-7.4H328v106.4h43.3c12.1,0,21.8-2.8,28.8-8.3c7.1-5.6,10.7-13.4,10.7-23.3c0-6-1.7-11.2-5-15.3
		C402.8,203.5,398.6,200.6,393.3,198.5L393.3,198.5z M350.5,167h17.3c5.4,0,9.5,1,12.2,3.1c2.6,2,3.9,4.7,3.9,8.2
		c0,3.5-1.3,6.3-3.9,8.3c-2.7,2.1-6.8,3.1-12.2,3.1h-17.3V167z M383.1,231.4c-3,2.4-7.6,3.6-13.6,3.6h-18.9v-26h18.9
		c6,0,10.6,1.2,13.6,3.5c3,2.3,4.4,5.3,4.4,9.3C387.5,225.9,386.1,229,383.1,231.4L383.1,231.4z"/>
	<path class="st0" d="M441.2,174.6h-22.7v79.5h22.7V174.6z"/>
	<path class="st1" d="M665,186.6c-3.6-4.3-8.1-7.6-13.4-9.9c-5.3-2.3-11.2-3.5-17.6-3.5c-7.9,0-15,1.8-21.1,5.3
		c-6.1,3.5-11,8.4-14.5,14.5c-3.5,6.1-5.2,13.2-5.2,21.1c0,7.9,1.7,15.5,5.1,21.7c3.4,6.2,8.2,11.1,14.4,14.6
		c6.2,3.4,13.5,5.1,21.6,5.1c10,0,18.5-2.5,25.3-7.5c6.5-4.8,11-11.5,13.4-19.9h-22.8c-1.2,2.9-2.9,5.3-5.3,7c-2.9,2-6.6,3.1-11,3.1
		c-3.8,0-7.1-0.9-9.8-2.8c-2.7-1.8-4.7-4.5-6-8.1c-0.8-2.1-1.4-4.5-1.7-7.2h57l0.1-0.7c1-6.4,0.8-12.5-0.8-18.1
		C671.2,195.9,668.6,190.9,665,186.6z M616.7,205.5c0.3-1.6,0.8-3.3,1.4-4.8c1.4-3.6,3.4-6.3,6-8.1c2.6-1.8,5.8-2.8,9.5-2.8
		c4.7,0,8.5,1.5,11.4,4.5c2.7,2.8,4.3,6.7,4.6,11.3H616.7z"/>
	<path class="st0" d="M441.7,147.8H418V167h23.6V147.8z"/>
	<path class="st1" d="M565.8,183.7c-2.7-3.2-5.8-5.7-9.4-7.4c-4.2-2-9.2-3.1-14.7-3.1c-6.8,0-12.8,1.7-18,4.9
		c-5.2,3.3-9.3,7.9-12.2,13.7c-2.9,5.8-4.4,12.7-4.4,20.4s1.6,14.1,4.6,20c3.1,5.9,7.3,10.6,12.7,14c5.3,3.4,11.4,5.1,18.1,5.1
		c5,0,9.6-1.1,13.7-3.2c3.2-1.7,5.9-3.9,8-6.7v8.7c0,5.4-1.4,9.5-4.2,12.2c-2.8,2.7-7,4.1-12.6,4.1c-4.8,0-8.6-1.1-11.2-3.2
		c-2.2-1.8-4.1-4.1-4.5-8.9h-21.9c0.2,6.8,2.2,11.4,5.1,15.5c3.2,4.5,7.7,8.1,13.3,10.5c5.6,2.4,12.1,3.6,19.4,3.6
		c12.1,0,21.8-3,28.7-9c7-6,10.5-14.5,10.5-25.1v-75.1h-20.9V183.7z M561.8,222.8c-1.4,3-3.5,5.3-6,6.9c-2.6,1.6-5.7,2.4-9.2,2.4
		c-5.1,0-9.1-1.7-12.2-5.3c-3.1-3.6-4.6-8.5-4.6-14.5s1.6-11,4.6-14.6c3-3.5,7.1-5.3,12.2-5.3s9.5,1.8,12.7,5.4
		c3.2,3.6,4.8,8.5,4.8,14.6C564,216.3,563.2,219.8,561.8,222.8L561.8,222.8z"/>
	<path class="st0" d="M728.4,193.7v-19h-16.4v-26.8h-22.5v26.8h-14v19h14v31.1c0,17.3,3.4,30,24.8,29.6l13.4-0.3v-17.8H721
		c-9,0-9-5-9-14.2v0c0-0.5,0-1,0-1.5l0-26.9H728.4z"/>
	<path class="st0" d="M501.5,193.7v-19h-16.4v-26.8h-22.5v26.8h-14v19h14v31.1c0,17.3,3.4,30,24.8,29.6l13.4-0.3v-17.8h-6.6
		c-9,0-9-5-9-14.2v0c0-0.5,0-1,0-1.5l0-26.9H501.5z"/>
	<path class="st0" d="M1000.8,147.8h-22.7v106.4h22.7V147.8z"/>
	<path class="st1" d="M830.2,193.5l16.3,60.7h27.6l29.8-106.4h-26l-16,69.1l-1.4,6.7l-1.4-6.7l-18.3-69.1h-22.1l-18.5,69.1l-1.4,6.7
		l-1.4-6.7l-16-69.1H754l29.8,106.4h27.9l16.2-60.7l1.2-5.5L830.2,193.5z M860.5,229.6L860.5,229.6l2.6-12.4l15.8-68.2l0,0
		l-15.8,68.2L860.5,229.6z M847.5,253l-16.1-59.8l-2.3-11l0,0l2.3,11L847.5,253L847.5,253z M819.6,149.1l-18.2,68.2l-2.6,12.4l0,0
		l2.6-12.4L819.6,149.1L819.6,149.1z M755.6,149.1L784.7,253h0L755.6,149.1L755.6,149.1z"/>
	<path class="st1" d="M897.2,201.3H920c1-6.1,5.2-10.2,13-10.2c8.8,0,13.1,4.5,13.1,13v1.7c-12.4,0.1-22.4,1.2-32.8,4.5
		c-12.7,4.3-18.9,12.4-18.9,22.9c0,14.8,11.3,22.3,26.5,22.3c9.5,0,19.1-3.6,25.3-12c0.1,3.7,0.6,7.1,1.3,9.7h23.5
		c-1.3-4-2.2-9.2-2.2-19.3v-29.7c0-18-11.9-31-34.9-31C913.4,173.2,899.6,183.9,897.2,201.3z M927.9,240.2c-6.7,0-10.7-3.3-10.7-8.5
		c0-7.2,5.8-12.7,28.9-13.1v3C946.1,232.3,938,240.2,927.9,240.2z"/>
	<path class="st0" d="M1032.8,147.8h-22.7v106.4h22.7V147.8z"/>
	<path class="st1" d="M1111.6,186.6c-3.6-4.3-8.1-7.6-13.4-9.9c-5.3-2.3-11.2-3.5-17.6-3.5c-7.9,0-15,1.8-21.1,5.3
		c-6.2,3.5-11,8.4-14.5,14.5c-3.5,6.1-5.2,13.2-5.2,21.1c0,7.9,1.7,15.5,5.1,21.7c3.4,6.2,8.2,11.1,14.4,14.6
		c6.2,3.4,13.5,5.1,21.6,5.1c10,0,18.5-2.5,25.3-7.5c6.5-4.8,11-11.5,13.4-19.9h-22.8c-1.2,2.9-2.9,5.3-5.3,7c-2.9,2-6.6,3.1-11,3.1
		c-3.8,0-7.1-0.9-9.8-2.8c-2.7-1.8-4.7-4.5-6-8.1c-0.8-2.1-1.4-4.5-1.7-7.2h57.1l0.1-0.7c1-6.4,0.8-12.5-0.8-18.1
		C1117.8,195.9,1115.2,190.9,1111.6,186.6z M1063.3,205.5c0.4-1.6,0.8-3.3,1.4-4.8c1.4-3.6,3.4-6.3,6-8.1c2.6-1.8,5.8-2.8,9.5-2.8
		c4.7,0,8.5,1.5,11.4,4.5c2.7,2.8,4.3,6.7,4.6,11.3H1063.3z"/>
	<path class="st0" d="M1175,193.7v-19h-16.4v-26.8h-22.5v26.8h-14v19h14v31.1c0,17.3,3.4,30,24.8,29.6l13.4-0.3v-17.8h-6.7
		c-9,0-9-5-9-14.2v0v-0.2v-0.1v-0.6c0-0.2,0-0.4,0-0.6l0-26.9H1175z"/>
	<path class="st0" d="M184.7,173.9h0.4l54.2,54.3l-54.9,54.3L169.5,297h49.4l62.9-63c3.2-3.2,3.2-8.3,0-11.5l-49.1-48.6h-47.6l0,0
		L184.7,173.9z"/>
</g>
</svg>
