<svg viewBox="0 0 176 41" xmlns="http://www.w3.org/2000/svg" fill="white"><path d="M46.2856 21.3678C46.2856 14.0593 51.4953 8.37378 59.0242 8.37378C64.4192 8.37378 68.4717 11.2341 70.3902 15.502L67.024 17.3103C65.7216 14.2346 62.8613 12.0606 59.0242 12.0606C53.6292 12.0606 50.1578 16.2233 50.1578 21.3628C50.1578 26.5023 53.6693 30.665 59.0242 30.665C62.9715 30.665 65.9019 28.3507 67.1692 25.0897L70.5004 26.8629C68.6921 31.3162 64.5644 34.3568 59.0292 34.3568C51.5003 34.3568 46.2907 28.6362 46.2907 21.3628L46.2856 21.3678Z" fill="inherit"></path><path d="M71.5869 24.734C71.5869 19.1587 75.7145 15.0712 81.395 15.0712C87.0755 15.0712 91.2032 19.1587 91.2032 24.734C91.2032 30.3093 87.1156 34.3618 81.395 34.3618C75.6745 34.3618 71.5869 30.3093 71.5869 24.734ZM81.395 31.0357C84.8715 31.0357 87.5464 28.4309 87.5464 24.739C87.5464 21.0472 84.8665 18.4424 81.395 18.4424C77.9236 18.4424 75.2437 21.0472 75.2437 24.739C75.2437 28.4309 77.9587 31.0357 81.395 31.0357Z" fill="inherit"></path><path d="M92.2852 24.734C92.2852 19.1587 96.4128 15.0712 102.093 15.0712C107.774 15.0712 111.901 19.1587 111.901 24.734C111.901 30.3093 107.814 34.3618 102.093 34.3618C96.3727 34.3618 92.2852 30.3093 92.2852 24.734ZM102.093 31.0357C105.57 31.0357 108.245 28.4309 108.245 24.739C108.245 21.0472 105.565 18.4424 102.093 18.4424C98.6219 18.4424 95.9419 21.0472 95.9419 24.739C95.9419 28.4309 98.6569 31.0357 102.093 31.0357Z" fill="inherit"></path><path d="M114.616 7.25671H118.233V21.7335H121.198L126.047 15.4018H130.355L124.129 23.6169L130.536 34.0412H126.303L120.803 25.2099H118.233V34.0412H114.616V7.25671Z" fill="inherit"></path><path d="M134.088 7.03625C135.605 7.03625 136.728 8.15833 136.728 9.67613C136.728 11.1939 135.605 12.316 134.088 12.316C132.57 12.316 131.448 11.1589 131.448 9.67613C131.448 8.19339 132.57 7.03625 134.088 7.03625ZM132.279 15.3967H135.896V34.0362H132.279V15.3967Z" fill="inherit"></path><path d="M138.536 24.734C138.536 19.2339 142.298 15.0712 147.948 15.0712C153.598 15.0712 156.849 19.3791 156.849 24.2982V26.0014H142.192C142.663 29.5479 145.053 31.1058 147.983 31.1058C150.914 31.1058 152.867 29.2975 153.448 27.6695L156.233 29.1522C155.437 31.216 152.902 34.3618 147.983 34.3618C142.263 34.3618 138.536 30.1641 138.536 24.734ZM153.088 22.9607C153.052 20.6465 151.099 18.2571 147.913 18.2571C145.163 18.2571 142.919 19.8851 142.303 22.9607H153.088Z" fill="inherit"></path><path d="M172.233 26.7628C172.233 24.2631 170.425 22.4548 167.274 22.4548H165.32V19.2339H167.274C169.843 19.2339 171.436 17.716 171.436 15.3968C171.436 13.6936 170.024 11.74 167.128 11.74C164.053 11.74 162.495 13.8038 162.244 16.1932L159.169 14.7806C159.71 11.4895 162.244 8.37378 167.169 8.37378C172.093 8.37378 175.203 11.5246 175.203 15.2866C175.203 18.217 173.575 19.845 172.238 20.5713C174.627 21.7635 176 23.8624 176 26.7227C176 30.8854 172.994 34.3618 167.279 34.3618C162.174 34.3618 159.319 30.9605 158.848 27.955L161.924 26.5073C162.249 28.8967 164.023 30.9956 167.209 30.9956C170.61 30.9956 172.238 29.1872 172.238 26.7628H172.233Z" fill="inherit"></path><g clip-path="url(#clip0_1096_311)"><path d="M40.4624 14.4552V11.6592C40.4624 11.0348 39.9562 10.5286 39.3317 10.5286H36.5358C35.9114 10.5286 35.4051 11.0348 35.4051 11.6592V14.4552C35.4051 15.0796 35.9114 15.5858 36.5358 15.5858H39.3317C39.9562 15.5858 40.4624 15.0796 40.4624 14.4552Z" fill="inherit"></path><path d="M35.4053 4.34065V1.54474C35.4053 0.920286 34.899 0.414063 34.2746 0.414063L31.4787 0.414063C30.8542 0.414063 30.348 0.920286 30.348 1.54474V4.34065C30.348 4.96511 30.8542 5.47133 31.4787 5.47133H34.2746C34.899 5.47133 35.4053 4.96511 35.4053 4.34065Z" fill="inherit"></path><path d="M31.437 12.0509V9.25495C31.437 8.63049 30.9308 8.12427 30.3063 8.12427H27.5104C26.886 8.12427 26.3797 8.63049 26.3797 9.25495V12.0509C26.3797 12.6753 26.886 13.1815 27.5104 13.1815H30.3063C30.9308 13.1815 31.437 12.6753 31.437 12.0509Z" fill="inherit"></path><path d="M30.348 20.6453H26.4214C25.7967 20.6453 25.2908 20.1394 25.2908 19.5146V17.5459V16.7187C25.2908 16.094 24.7848 15.5881 24.1601 15.5881H21.3642C20.7394 15.5881 20.2335 15.0821 20.2335 14.4574V6.60419C20.2335 5.97946 19.7275 5.47351 19.1028 5.47351H11.2496C10.6249 5.47351 10.1189 5.97946 10.1189 6.60419V8.31122V9.3979C10.1189 10.0226 9.61299 10.5286 8.98826 10.5286H6.19235C5.56762 10.5286 5.06167 11.0345 5.06167 11.6593V12.3126V14.453C5.06167 15.0777 4.55572 15.5837 3.93099 15.5837H1.96219H1.13508C0.510342 15.5837 0.00439453 16.0896 0.00439453 16.7143V29.627C0.00439453 30.2517 0.510342 30.7577 1.13508 30.7577H3.93099C4.55572 30.7577 5.06167 31.2636 5.06167 31.8884V33.25V34.6843C5.06167 35.309 5.56762 35.8149 6.19235 35.8149H8.98826C9.61299 35.8149 10.1189 36.3209 10.1189 36.9456V39.7415C10.1189 40.3663 10.6249 40.8722 11.2496 40.8722H24.1623C24.787 40.8722 25.293 40.3663 25.293 39.7415V36.9456C25.293 36.3209 25.7989 35.8149 26.4236 35.8149H28.3924H29.2196C29.8443 35.8149 30.3502 35.309 30.3502 34.6843V34.0287V31.8884C30.3502 31.2636 30.8562 30.7577 31.4809 30.7577H33.4497H34.2768C34.9016 30.7577 35.4075 30.2517 35.4075 29.627V21.7738C35.4075 21.1491 34.9016 20.6431 34.2768 20.6431H30.3502L30.348 20.6453ZM30.348 30.7621H26.4214C25.7967 30.7621 25.2908 31.268 25.2908 31.8928V33.5998V34.6865C25.2908 35.3112 24.7848 35.8171 24.1601 35.8171H11.2496C10.6249 35.8171 10.1189 35.3112 10.1189 34.6865V32.7177V31.8906C10.1189 31.2658 9.61299 30.7599 8.98826 30.7599H8.33273H6.19235C5.56762 30.7599 5.06167 30.2539 5.06167 29.6292V16.7165C5.06167 16.0918 5.56762 15.5859 6.19235 15.5859H8.98826C9.61299 15.5859 10.1189 15.0799 10.1189 14.4552V11.6593C10.1189 11.0345 10.6249 10.5286 11.2496 10.5286H13.2184H14.0455C14.6703 10.5286 15.1762 11.0345 15.1762 11.6593V14.4552C15.1762 15.0799 15.6822 15.5859 16.3069 15.5859H19.1028C19.7275 15.5859 20.2335 16.0918 20.2335 16.7165V19.5124C20.2335 20.1372 20.7394 20.6431 21.3642 20.6431H24.1601C24.7848 20.6431 25.2908 21.1491 25.2908 21.7738V24.5697C25.2908 25.1945 25.7967 25.7004 26.4214 25.7004H29.2174C29.8421 25.7004 30.348 26.2063 30.348 26.8311V30.7577V30.7621Z" fill="inherit"></path></g><defs><clipPath id="clip0_1096_311"><rect width="40.4648" height="40.4648" fill="white" transform="translate(0 0.414062)"></rect></clipPath></defs></svg>