<svg width="336" height="61" viewBox="0 0 336 61" fill="none" xmlns="http://www.w3.org/2000/svg"><path d="M285.25 54.1098C285.25 56.5054 287.294 58.4505 289.812 58.4505L290.401 58.4505L290.401 25.3512L288.403 23.1753L290.401 21.2742L290.401 0.0101933L285.25 0.0101933L285.25 54.1098Z" fill="#BDFE00"></path><path d="M296.904 15.7577L296.904 0.0101933L291.764 0.0101933L291.764 19.9665L296.176 15.7577L296.904 15.7577Z" fill="#BDFE00"></path><path d="M291.764 58.4505L296.904 58.4505L296.904 32.4392L291.764 26.8347L291.764 58.4505Z" fill="#BDFE00"></path><path d="M303.406 0.0101933L298.267 0.0101933L298.267 15.7577L303.406 15.7577L303.406 0.0101933Z" fill="#BDFE00"></path><path d="M298.267 58.4505L303.418 58.4505L303.418 39.5162L298.267 33.9227L298.267 58.4505Z" fill="#BDFE00"></path><path d="M304.781 58.4615C306.479 58.5494 308.084 59.2307 309.285 60.3736L309.944 61L309.944 46.6262L304.781 40.9997L304.781 58.4615Z" fill="#BDFE00"></path><path d="M309.944 0.0101933L304.781 0.0101933L304.781 15.7577L309.944 15.7577L309.944 0.0101933Z" fill="#BDFE00"></path><path d="M316.458 0.0101933L311.318 0.0101933L311.318 15.7577L316.458 15.7577L316.458 0.0101933Z" fill="#BDFE00"></path><path d="M311.318 60.978L311.953 60.3736C313.154 59.2307 314.771 58.5494 316.458 58.4615L316.458 40.9997L311.318 46.5932L311.318 60.978Z" fill="#BDFE00"></path><path d="M322.972 0.0101933L317.832 0.0101933L317.832 15.7577L322.972 15.7577L322.972 0.0101933Z" fill="#BDFE00"></path><path d="M317.832 58.4505L322.972 58.4505L322.972 33.9227L317.832 39.5162L317.832 58.4505Z" fill="#BDFE00"></path><path d="M324.335 15.7577L325.062 15.7577L329.486 19.9665L329.486 0.0101933L324.335 0.0101933L324.335 15.7577Z" fill="#BDFE00"></path><path d="M324.335 58.4505L329.486 58.4505L329.486 26.8347L324.335 32.4392L324.335 58.4505Z" fill="#BDFE00"></path><path d="M330.849 0.0101933L330.849 21.2742L332.847 23.1753L330.849 25.3512L330.849 58.4505L331.438 58.4505C333.956 58.4505 336 56.5054 336 54.1098L336 0.0101933L330.849 0.0101933Z" fill="#BDFE00"></path><path d="M329.047 22.6698L317.763 22.6698L317.763 16.4719L316.469 16.4719L316.469 22.6698L291.452 22.6698L291.452 23.9116L315.996 23.9116L303.187 37.8019C303.441 38.0876 303.695 38.3843 303.949 38.681L304.03 38.747L316.469 25.2633L316.469 38.4832L317.763 38.4832L317.763 23.9116L329.047 23.9116L329.047 22.6698Z" fill="#BDFE00"></path><path d="M196.958 0.0101931L142.542 0.0101931C142.105 0.0101931 141.75 0.357568 141.75 0.785583L141.75 58.5305C141.75 58.9585 142.105 59.3058 142.542 59.3058L196.958 59.3058C197.395 59.3058 197.75 58.9585 197.75 58.5305L197.75 44.8185C197.75 44.3904 197.395 44.0431 196.958 44.0431L161.61 44.0431C161.173 44.0431 160.818 43.6957 160.818 43.2677L160.818 35.6409L186.813 35.6409C187.25 35.6409 187.605 35.2936 187.605 34.8655L187.605 23.3432C187.605 22.9152 187.25 22.5678 186.813 22.5678L160.818 22.5678L160.818 16.0546C160.818 15.6266 161.173 15.2792 161.61 15.2792L196.958 15.2792C197.395 15.2792 197.75 14.9318 197.75 14.5038L197.75 0.785584C197.75 0.357568 197.395 0.0101931 196.958 0.0101931Z" fill="white"></path><path d="M63.9557 0.010193L14.3797 0.0101929C13.3567 0.0101929 12.3749 0.407214 11.6537 1.11751L1.12153 11.4494C0.403496 12.1534 1.88667e-08 13.1057 2.02967e-08 14.0982L6.32003e-08 43.8779C6.46124e-08 44.858 0.390788 45.7978 1.09293 46.4988L12.7562 58.1737C13.4806 58.8995 14.4718 59.3058 15.5076 59.3058L37.6649 59.3058C38.5228 59.3058 39.3425 58.9802 39.9588 58.397L50.3957 48.4839L50.3957 58.5304C50.3957 58.9585 50.7515 59.3058 51.19 59.3058L63.9557 59.3058C64.3942 59.3058 64.75 58.9585 64.75 58.5304L64.75 23.3445C64.75 22.9164 64.3942 22.569 63.9557 22.569L29.0803 22.569C28.6419 22.569 28.286 22.9164 28.286 23.3445L28.286 34.8674C28.286 35.2954 28.6419 35.6428 29.0803 35.6428L42.8119 35.6428L34.6308 42.8667C33.7698 43.6235 32.6482 44.0423 31.4886 44.0423L23.73 44.0423C21.1851 44.0423 19.1232 42.0292 19.1232 39.5448L19.1232 20.7824C19.1232 17.7427 21.6458 15.28 24.7594 15.28L63.9525 15.28C64.391 15.28 64.7468 14.9326 64.7468 14.5045L64.7468 0.785624C64.7468 0.357586 64.391 0.010193 63.9525 0.010193L63.9557 0.010193Z" fill="white"></path><path d="M133.962 0.0101931L84.3836 0.010193C83.3605 0.010193 82.3787 0.407214 81.6575 1.11751L71.1216 11.4494C70.4035 12.1534 70 13.1057 70 14.0982L70 43.8779C70 44.858 70.3908 45.7978 71.093 46.4988L82.7568 58.1737C83.4812 58.8995 84.4725 59.3058 85.5083 59.3058L107.664 59.3058C108.521 59.3058 109.341 58.9802 109.958 58.397L120.395 48.4839L120.395 58.5304C120.395 58.9585 120.751 59.3058 121.189 59.3058L133.956 59.3058C134.394 59.3058 134.75 58.9585 134.75 58.5304L134.75 23.3445C134.75 22.9164 134.394 22.569 133.956 22.569L99.0817 22.569C98.6433 22.569 98.2874 22.9164 98.2874 23.3445L98.2874 34.8674C98.2874 35.2954 98.6433 35.6428 99.0817 35.6428L112.814 35.6428L104.632 42.8667C103.771 43.6235 102.65 44.0423 101.49 44.0423L93.7312 44.0423C91.1862 44.0423 89.1241 42.0292 89.1241 39.5448L89.1241 20.7824C89.1241 17.7427 91.6469 15.28 94.7606 15.28L133.956 15.28C134.394 15.28 134.75 14.9326 134.75 14.5045L134.75 0.785624C134.75 0.357586 134.394 0.0101931 133.956 0.0101931L133.962 0.0101931Z" fill="white"></path><path d="M278.857 11.4637L268.151 1.1189C267.414 0.407713 266.42 0.0101932 265.38 0.0101932L249.626 0.0101932C248.605 0.0101932 247.627 0.392185 246.897 1.07853L241.497 6.1438L236.097 1.07853C235.367 0.39529 234.388 0.0101932 233.368 0.0101932L217.62 0.0101932C216.58 0.0101932 215.583 0.407713 214.849 1.1189L204.14 11.4637C203.41 12.1687 203 13.1221 203 14.1159L203 58.5294C203 58.958 203.362 59.3058 203.807 59.3058L221.635 59.3058C222.08 59.3058 222.442 58.958 222.442 58.5294L222.442 20.7651C222.442 17.7247 225.003 15.2588 228.165 15.2557L228.21 15.2557C230.797 15.2557 232.893 17.2712 232.893 19.7588L232.893 58.5294C232.893 58.958 233.255 59.3058 233.701 59.3058L249.293 59.3058C249.739 59.3058 250.1 58.958 250.1 58.5294L250.1 19.7588C250.1 17.2712 252.196 15.2557 254.783 15.2557L254.829 15.2557C257.994 15.2557 260.558 17.7216 260.558 20.7651L260.558 58.5294C260.558 58.958 260.92 59.3058 261.365 59.3058L279.193 59.3058C279.638 59.3058 280 58.958 280 58.5294L280 14.1159C280 13.1221 279.59 12.1687 278.863 11.4637L278.857 11.4637Z" fill="white"></path></svg>