<svg width="207" height="32" viewBox="0 0 207 32" fill="none" xmlns="http://www.w3.org/2000/svg">
<path d="M200.371 24.3127C198.996 24.3127 197.768 24.0193 196.686 23.4327C195.604 22.8277 194.752 22.0027 194.128 20.9577C193.505 19.9127 193.193 18.7302 193.193 17.4102C193.193 16.0902 193.496 14.9077 194.101 13.8627C194.724 12.8177 195.558 11.9927 196.603 11.3877C197.667 10.7827 198.849 10.4802 200.151 10.4802C201.416 10.4802 202.534 10.7643 203.506 11.3327C204.478 11.901 205.238 12.6893 205.788 13.6977C206.357 14.6877 206.641 15.8243 206.641 17.1077C206.641 17.3277 206.623 17.566 206.586 17.8227C206.568 18.061 206.522 18.336 206.448 18.6477H195.338V16.0077L204.798 15.9802L203.368 17.0802C203.35 16.2918 203.213 15.6318 202.956 15.1002C202.699 14.5685 202.333 14.1652 201.856 13.8902C201.398 13.5968 200.82 13.4502 200.123 13.4502C199.408 13.4502 198.785 13.6152 198.253 13.9452C197.722 14.2568 197.309 14.706 197.016 15.2927C196.723 15.861 196.576 16.5485 196.576 17.3552C196.576 18.1618 196.732 18.8677 197.043 19.4727C197.355 20.0593 197.795 20.5177 198.363 20.8477C198.932 21.1593 199.592 21.3152 200.343 21.3152C201.022 21.3152 201.636 21.2052 202.186 20.9852C202.754 20.7468 203.24 20.3985 203.643 19.9402L205.733 22.0302C205.073 22.7818 204.276 23.3502 203.341 23.7352C202.424 24.1202 201.434 24.3127 200.371 24.3127Z" fill="white"/>
<path d="M183.283 24.0377V10.7552H186.803V24.0377H183.283ZM186.803 16.6952L185.456 15.8152C185.603 14.1835 186.061 12.891 186.831 11.9377C187.619 10.966 188.756 10.4802 190.241 10.4802C190.901 10.4802 191.488 10.5902 192.001 10.8102C192.514 11.0302 192.982 11.3785 193.403 11.8552L191.203 14.3852C190.983 14.1468 190.727 13.9727 190.433 13.8627C190.158 13.7527 189.838 13.6977 189.471 13.6977C188.683 13.6977 188.041 13.9452 187.546 14.4402C187.051 14.9168 186.803 15.6685 186.803 16.6952Z" fill="white"/>
<path d="M173 24.3127C171.79 24.3127 170.699 24.0102 169.728 23.4052C168.774 22.8002 168.013 21.9843 167.445 20.9577C166.895 19.9127 166.62 18.7393 166.62 17.4377C166.62 16.1177 166.895 14.9352 167.445 13.8902C168.013 12.8452 168.774 12.0202 169.728 11.4152C170.699 10.7918 171.79 10.4802 173 10.4802C173.953 10.4802 174.806 10.6818 175.558 11.0852C176.328 11.4885 176.942 12.0385 177.4 12.7352C177.858 13.4135 178.097 14.1927 178.115 15.0727V19.7202C178.097 20.6002 177.858 21.3885 177.4 22.0852C176.96 22.7818 176.355 23.3318 175.585 23.7352C174.815 24.1202 173.953 24.3127 173 24.3127ZM173.633 21.0677C174.659 21.0677 175.484 20.7285 176.108 20.0502C176.749 19.3535 177.07 18.4735 177.07 17.4102C177.07 16.6952 176.923 16.0627 176.63 15.5127C176.355 14.9627 175.961 14.5318 175.448 14.2202C174.934 13.9085 174.338 13.7527 173.66 13.7527C172.982 13.7527 172.386 13.9085 171.873 14.2202C171.359 14.5318 170.956 14.9627 170.663 15.5127C170.369 16.0627 170.223 16.6952 170.223 17.4102C170.223 18.1252 170.369 18.7577 170.663 19.3077C170.956 19.8577 171.359 20.2885 171.873 20.6002C172.386 20.9118 172.973 21.0677 173.633 21.0677ZM176.878 24.0377V20.4627L177.455 17.2452L176.878 14.0277V10.7552H180.37V24.0377H176.878Z" fill="white"/>
<path d="M158.608 24.3127C157.453 24.3127 156.417 24.0652 155.5 23.5702C154.602 23.0752 153.896 22.3877 153.383 21.5077C152.888 20.6277 152.64 19.6102 152.64 18.4552V10.7552H156.16V18.3727C156.16 18.941 156.252 19.4268 156.435 19.8302C156.637 20.2152 156.921 20.5177 157.288 20.7377C157.654 20.9577 158.094 21.0677 158.608 21.0677C159.378 21.0677 159.973 20.8385 160.395 20.3802C160.817 19.9035 161.028 19.2343 161.028 18.3727V10.7552H164.575V18.4827C164.575 19.6377 164.318 20.6552 163.805 21.5352C163.31 22.4152 162.613 23.1027 161.715 23.5977C160.817 24.0743 159.781 24.3127 158.608 24.3127Z" fill="white"/>
<path d="M142.412 24.3127C141.202 24.3127 140.111 24.0102 139.139 23.4052C138.186 22.8002 137.425 21.9843 136.857 20.9577C136.307 19.9127 136.032 18.7393 136.032 17.4377C136.032 16.1177 136.307 14.9352 136.857 13.8902C137.425 12.8452 138.186 12.0202 139.139 11.4152C140.111 10.7918 141.202 10.4802 142.412 10.4802C143.365 10.4802 144.218 10.6818 144.969 11.0852C145.739 11.4885 146.353 12.0385 146.812 12.7352C147.27 13.4135 147.508 14.1927 147.527 15.0727V19.7202C147.508 20.6002 147.27 21.3885 146.812 22.0852C146.372 22.7818 145.767 23.3318 144.997 23.7352C144.227 24.1202 143.365 24.3127 142.412 24.3127ZM143.044 21.0677C144.071 21.0677 144.896 20.7285 145.519 20.0502C146.161 19.3535 146.482 18.4735 146.482 17.4102C146.482 16.6952 146.335 16.0627 146.042 15.5127C145.767 14.9627 145.373 14.5318 144.859 14.2202C144.346 13.9085 143.75 13.7527 143.072 13.7527C142.393 13.7527 141.798 13.9085 141.284 14.2202C140.771 14.5318 140.368 14.9627 140.074 15.5127C139.781 16.0627 139.634 16.6952 139.634 17.4102C139.634 18.1252 139.781 18.7577 140.074 19.3077C140.368 19.8577 140.771 20.2885 141.284 20.6002C141.798 20.9118 142.384 21.0677 143.044 21.0677ZM146.289 29.5927V20.7102L146.867 17.4927L146.289 14.2752V10.7552H149.782V29.5927H146.289Z" fill="white"/>
<path d="M127.355 24.3127C125.797 24.3127 124.468 24.0468 123.368 23.5152C122.268 22.9835 121.278 22.186 120.398 21.1227L122.818 18.7027C123.386 19.4543 124.037 20.041 124.77 20.4627C125.522 20.866 126.439 21.0677 127.52 21.0677C128.529 21.0677 129.317 20.8752 129.885 20.4902C130.472 20.0868 130.765 19.5368 130.765 18.8402C130.765 18.2535 130.6 17.7768 130.27 17.4102C129.94 17.0252 129.5 16.7135 128.95 16.4752C128.419 16.2185 127.823 15.9802 127.163 15.7602C126.521 15.5402 125.87 15.2927 125.21 15.0177C124.569 14.7427 123.973 14.4035 123.423 14.0002C122.891 13.5785 122.46 13.0468 122.13 12.4052C121.8 11.7635 121.635 10.9477 121.635 9.95768C121.635 8.78434 121.92 7.79434 122.488 6.98768C123.056 6.16268 123.835 5.53018 124.825 5.09018C125.815 4.65018 126.925 4.43018 128.153 4.43018C129.473 4.43018 130.655 4.67768 131.7 5.17268C132.764 5.64934 133.625 6.28184 134.285 7.07018L131.865 9.49018C131.297 8.88518 130.71 8.43601 130.105 8.14268C129.519 7.83101 128.85 7.67518 128.098 7.67518C127.218 7.67518 126.53 7.84934 126.035 8.19768C125.54 8.54601 125.293 9.03184 125.293 9.65518C125.293 10.1868 125.458 10.6268 125.788 10.9752C126.118 11.3052 126.549 11.5893 127.08 11.8277C127.63 12.066 128.226 12.2952 128.868 12.5152C129.528 12.7352 130.179 12.9827 130.82 13.2577C131.462 13.5327 132.049 13.8902 132.58 14.3302C133.13 14.7702 133.57 15.3385 133.9 16.0352C134.23 16.7135 134.395 17.5568 134.395 18.5652C134.395 20.3618 133.763 21.7735 132.498 22.8002C131.251 23.8085 129.537 24.3127 127.355 24.3127Z" fill="white"/>
<path d="M108.724 24.3127C107.386 24.3127 106.176 24.0102 105.094 23.4052C104.013 22.8002 103.16 21.9752 102.537 20.9302C101.932 19.8852 101.629 18.7118 101.629 17.4102C101.629 16.0902 101.941 14.9077 102.564 13.8627C103.188 12.8177 104.031 11.9927 105.094 11.3877C106.176 10.7827 107.395 10.4802 108.752 10.4802C109.778 10.4802 110.732 10.6727 111.612 11.0577C112.492 11.4427 113.253 11.9927 113.894 12.7077L111.639 15.0177C111.273 14.596 110.842 14.2843 110.347 14.0827C109.87 13.881 109.338 13.7802 108.752 13.7802C108.055 13.7802 107.441 13.936 106.909 14.2477C106.378 14.5593 105.965 14.981 105.672 15.5127C105.378 16.0443 105.232 16.6768 105.232 17.4102C105.232 18.1068 105.378 18.7302 105.672 19.2802C105.965 19.8302 106.378 20.261 106.909 20.5727C107.441 20.866 108.055 21.0127 108.752 21.0127C109.357 21.0127 109.898 20.9118 110.374 20.7102C110.869 20.4902 111.3 20.1785 111.667 19.7752L113.949 22.0577C113.289 22.791 112.51 23.3502 111.612 23.7352C110.732 24.1202 109.769 24.3127 108.724 24.3127Z" fill="white"/>
<path d="M95.7685 24.0377V10.7552H99.2885V24.0377H95.7685ZM97.5285 8.58268C96.9602 8.58268 96.4835 8.39018 96.0985 8.00518C95.7135 7.62018 95.521 7.14351 95.521 6.57518C95.521 6.00684 95.7135 5.53018 96.0985 5.14518C96.4835 4.74184 96.9602 4.54018 97.5285 4.54018C98.1152 4.54018 98.5918 4.74184 98.9585 5.14518C99.3252 5.53018 99.5085 6.00684 99.5085 6.57518C99.5085 7.14351 99.3252 7.62018 98.9585 8.00518C98.5918 8.39018 98.1152 8.58268 97.5285 8.58268Z" fill="white"/>
<path d="M85.6457 29.8952C84.2341 29.8952 82.9874 29.6385 81.9057 29.1252C80.8424 28.6302 79.9899 27.9243 79.3482 27.0077L81.5757 24.7802C82.0891 25.4035 82.6666 25.871 83.3082 26.1827C83.9499 26.4943 84.7291 26.6502 85.6457 26.6502C86.7641 26.6502 87.6532 26.366 88.3132 25.7977C88.9732 25.2293 89.3032 24.441 89.3032 23.4327V20.1052L89.8807 17.1902L89.3307 14.2752V10.7552H92.8232V23.3777C92.8232 24.6977 92.5116 25.8435 91.8882 26.8152C91.2832 27.7868 90.4399 28.5385 89.3582 29.0702C88.2949 29.6202 87.0574 29.8952 85.6457 29.8952ZM85.5082 23.7077C84.2982 23.7077 83.2166 23.4235 82.2632 22.8552C81.3282 22.2685 80.5857 21.471 80.0357 20.4627C79.5041 19.4543 79.2382 18.3268 79.2382 17.0802C79.2382 15.8335 79.5041 14.7152 80.0357 13.7252C80.5857 12.7352 81.3282 11.9468 82.2632 11.3602C83.2166 10.7735 84.2982 10.4802 85.5082 10.4802C86.4982 10.4802 87.3691 10.6818 88.1207 11.0852C88.8907 11.4702 89.4957 12.011 89.9357 12.7077C90.3757 13.386 90.6049 14.1743 90.6232 15.0727V19.1152C90.6049 20.0135 90.3666 20.811 89.9082 21.5077C89.4682 22.186 88.8632 22.7268 88.0932 23.1302C87.3416 23.5152 86.4799 23.7077 85.5082 23.7077ZM86.1682 20.4627C86.8466 20.4627 87.4332 20.3252 87.9282 20.0502C88.4416 19.7568 88.8266 19.3627 89.0832 18.8677C89.3582 18.3543 89.4957 17.7585 89.4957 17.0802C89.4957 16.4202 89.3582 15.8427 89.0832 15.3477C88.8266 14.8343 88.4416 14.431 87.9282 14.1377C87.4332 13.8443 86.8557 13.6977 86.1957 13.6977C85.5174 13.6977 84.9216 13.8443 84.4082 14.1377C83.9132 14.431 83.5191 14.8343 83.2257 15.3477C82.9507 15.8427 82.8132 16.4202 82.8132 17.0802C82.8132 17.7402 82.9507 18.3268 83.2257 18.8402C83.5191 19.3535 83.9132 19.7568 84.4082 20.0502C84.9216 20.3252 85.5082 20.4627 86.1682 20.4627Z" fill="white"/>
<path d="M69.5324 24.3127C68.3224 24.3127 67.2316 24.0102 66.2599 23.4052C65.3066 22.8002 64.5458 21.9843 63.9774 20.9577C63.4274 19.9127 63.1524 18.7393 63.1524 17.4377C63.1524 16.1177 63.4274 14.9352 63.9774 13.8902C64.5458 12.8452 65.3066 12.0202 66.2599 11.4152C67.2316 10.7918 68.3224 10.4802 69.5324 10.4802C70.4858 10.4802 71.3383 10.6818 72.0899 11.0852C72.8599 11.4885 73.4741 12.0385 73.9324 12.7352C74.3908 13.4135 74.6291 14.1927 74.6474 15.0727V19.7202C74.6291 20.6002 74.3908 21.3885 73.9324 22.0852C73.4924 22.7818 72.8874 23.3318 72.1174 23.7352C71.3474 24.1202 70.4858 24.3127 69.5324 24.3127ZM70.1649 21.0677C71.1916 21.0677 72.0166 20.7285 72.6399 20.0502C73.2816 19.3535 73.6024 18.4735 73.6024 17.4102C73.6024 16.6952 73.4558 16.0627 73.1624 15.5127C72.8874 14.9627 72.4933 14.5318 71.9799 14.2202C71.4666 13.9085 70.8708 13.7527 70.1924 13.7527C69.5141 13.7527 68.9183 13.9085 68.4049 14.2202C67.8916 14.5318 67.4883 14.9627 67.1949 15.5127C66.9016 16.0627 66.7549 16.6952 66.7549 17.4102C66.7549 18.1252 66.9016 18.7577 67.1949 19.3077C67.4883 19.8577 67.8916 20.2885 68.4049 20.6002C68.9183 20.9118 69.5049 21.0677 70.1649 21.0677ZM73.4099 24.0377V20.4627L73.9874 17.2452L73.4099 14.0277V10.7552H76.9024V24.0377H73.4099Z" fill="white"/>
<path d="M41.3 24.0377V4.70517H43.885L51.75 17.3552H50.2375L58.1025 4.70517H60.66V24.0377H57.03V11.0027L57.745 11.1952L52.2175 20.1052H49.7425L44.2425 11.1952L44.9575 11.0027V24.0377H41.3Z" fill="white"/>
<path d="M0.982196 18.3712C-0.327399 17.0616 -0.327399 14.9384 0.982196 13.6288L3.35343 11.2575L5.72466 13.6288C7.03426 14.9384 7.03426 17.0616 5.72466 18.3712C4.41507 19.6808 2.29179 19.6808 0.982196 18.3712Z" fill="url(#paint0_linear_1245_752)"/>
<path d="M7.30548 24.6945C5.99589 23.3849 5.99589 21.2616 7.30548 19.9521L9.67671 17.5808L18.3712 26.2753C19.6808 27.5849 19.6808 29.7082 18.3712 31.0178C17.0616 32.3274 14.9384 32.3274 13.6288 31.0178L7.30548 24.6945Z" fill="url(#paint1_linear_1245_752)"/>
<path d="M9.67671 4.93425L4.93425 9.67671L22.3233 27.0658L27.0658 22.3233L9.67671 4.93425Z" fill="url(#paint2_linear_1245_752)"/>
<path d="M13.6288 5.72466C12.3192 4.41507 12.3192 2.29179 13.6288 0.982197C14.9384 -0.327399 17.0616 -0.327399 18.3712 0.982197L24.6945 7.30548C26.0041 8.61508 26.0041 10.7384 24.6945 12.0479L22.3233 14.4192L13.6288 5.72466Z" fill="url(#paint3_linear_1245_752)"/>
<path d="M26.2753 13.6288C24.9657 14.9384 24.9657 17.0616 26.2753 18.3712L28.6466 20.7425L31.0178 18.3712C32.3274 17.0616 32.3274 14.9384 31.0178 13.6288C29.7082 12.3192 27.5849 12.3192 26.2753 13.6288Z" fill="url(#paint4_linear_1245_752)"/>
<defs>
<linearGradient id="paint0_linear_1245_752" x1="24" y1="4.5597e-08" x2="15.7362" y2="31.9317" gradientUnits="userSpaceOnUse">
<stop stop-color="#FF8066"/>
<stop offset="0.5" stop-color="#E666FF"/>
<stop offset="1" stop-color="#66B3FF"/>
</linearGradient>
<linearGradient id="paint1_linear_1245_752" x1="24" y1="4.5597e-08" x2="15.7362" y2="31.9317" gradientUnits="userSpaceOnUse">
<stop stop-color="#FF8066"/>
<stop offset="0.5" stop-color="#E666FF"/>
<stop offset="1" stop-color="#66B3FF"/>
</linearGradient>
<linearGradient id="paint2_linear_1245_752" x1="24" y1="4.5597e-08" x2="15.7362" y2="31.9317" gradientUnits="userSpaceOnUse">
<stop stop-color="#FF8066"/>
<stop offset="0.5" stop-color="#E666FF"/>
<stop offset="1" stop-color="#66B3FF"/>
</linearGradient>
<linearGradient id="paint3_linear_1245_752" x1="24" y1="4.5597e-08" x2="15.7362" y2="31.9317" gradientUnits="userSpaceOnUse">
<stop stop-color="#FF8066"/>
<stop offset="0.5" stop-color="#E666FF"/>
<stop offset="1" stop-color="#66B3FF"/>
</linearGradient>
<linearGradient id="paint4_linear_1245_752" x1="24" y1="4.5597e-08" x2="15.7362" y2="31.9317" gradientUnits="userSpaceOnUse">
<stop stop-color="#FF8066"/>
<stop offset="0.5" stop-color="#E666FF"/>
<stop offset="1" stop-color="#66B3FF"/>
</linearGradient>
</defs>
</svg>
