<svg width="124" height="32" viewBox="0 0 124 32" fill="none" xmlns="http://www.w3.org/2000/svg">
<g clip-path="url(#clip0_66_334)">
<path d="M4.21524 9.55554C3.23558 9.55554 2.44141 8.77863 2.44141 7.82027C2.44141 6.8619 3.23558 6.08496 4.21524 6.08496H11.3106C12.2903 6.08496 13.0844 6.8619 13.0844 7.82027C13.0844 8.77863 12.2903 9.55554 11.3106 9.55554H4.21524Z" fill="#2DDB9C"/>
<path d="M3.02813 19.4847C2.3354 20.1623 1.21227 20.1623 0.519545 19.4847C-0.173182 18.807 -0.173182 17.7083 0.519545 17.0306L5.53672 12.1225C6.22945 11.4448 7.35258 11.4448 8.04531 12.1225C8.738 12.8002 8.738 13.8989 8.04531 14.5766L3.02813 19.4847Z" fill="#2DDB9C"/>
<path d="M9.53838 27.4342C9.53838 28.3925 8.74422 29.1694 7.76455 29.1694C6.78489 29.1695 5.99072 28.3925 5.99072 27.4342V20.4931C5.99072 19.5347 6.78489 18.7578 7.76455 18.7578C8.74422 18.7578 9.53838 19.5347 9.53838 20.4931V27.4342Z" fill="#2DDB9C"/>
<path d="M19.7899 28.7161C20.4826 29.3938 20.4826 30.4925 19.7899 31.1702C19.0972 31.8479 17.9741 31.8479 17.2813 31.1702L12.2642 26.2621C11.5714 25.5844 11.5714 24.4857 12.2642 23.808C12.9569 23.1304 14.08 23.1304 14.7728 23.808L19.7899 28.7161Z" fill="#2DDB9C"/>
<path d="M27.8138 22.2266C28.7934 22.2266 29.5876 23.0035 29.5876 23.9618C29.5876 24.9202 28.7934 25.6971 27.8138 25.6971H20.7184C19.7387 25.6971 18.9446 24.9202 18.9446 23.9618C18.9446 23.0035 19.7387 22.2266 20.7184 22.2266H27.8138Z" fill="#2DDB9C"/>
<path d="M28.9725 12.1235C29.6652 11.4458 30.7884 11.4458 31.4811 12.1235C32.1738 12.8012 32.1738 13.8999 31.4811 14.5775L26.4639 19.4856C25.7712 20.1633 24.6481 20.1633 23.9553 19.4856C23.2626 18.808 23.2626 17.7093 23.9553 17.0316L28.9725 12.1235Z" fill="#2DDB9C"/>
<path d="M22.4116 4.35052C22.4116 3.39214 23.2058 2.61523 24.1855 2.61523C25.1651 2.61523 25.9593 3.39214 25.9593 4.35052V11.2916C25.9593 12.25 25.1651 13.0269 24.1855 13.0269C23.2058 13.0269 22.4116 12.25 22.4116 11.2916V4.35052Z" fill="#2DDB9C"/>
<path d="M12.2632 3.28456C11.5705 2.6069 11.5705 1.50818 12.2632 0.830515C12.9559 0.152849 14.0791 0.152849 14.7718 0.830515L19.789 5.73862C20.4817 6.41629 20.4817 7.51501 19.789 8.19268C19.0962 8.87035 17.9731 8.87031 17.2804 8.19268L12.2632 3.28456Z" fill="#2DDB9C"/>
<path d="M55.9443 16.5187C55.9443 22.3108 54.9509 24.9953 48.6983 24.9953C42.607 24.9953 41 23.3101 41 16.4977C41 10.3035 42.1839 8 48.4622 8C54.6131 8 55.9419 10.1352 55.9419 16.5187M48.246 10.6635C44.166 10.6635 43.9545 12.2705 43.9545 16.5187C43.9545 21.2543 44.2724 22.3319 48.6679 22.3319C52.8542 22.3319 52.9804 20.6828 52.9804 16.5187C52.9804 11.699 52.5574 10.6635 48.246 10.6635Z" fill="white"/>
<path d="M66.7478 16.9629C66.7478 15.0602 65.8596 14.7225 63.8728 14.7225C61.2514 14.7225 60.681 15.1233 60.681 18.5698C60.681 21.4227 60.8283 22.5014 63.7664 22.5014C65.9659 22.5014 66.8319 22.1624 66.8051 19.9641H69.5165C69.4744 23.7273 68.0579 24.9896 63.9359 24.9896C58.9899 24.9896 57.9755 23.2564 57.9755 18.5617C57.9755 14.0878 58.8812 12.2074 63.6823 12.2074C68.2695 12.2074 69.3049 13.7513 69.4323 16.964L66.7478 16.9629Z" fill="white"/>
<path d="M73.4071 9.39514H76.1337V12.3753H79.3465V14.8951H76.1337V20.8146C76.1337 22.1247 76.4294 22.4625 78.5015 22.4625C79.0298 22.4625 79.156 22.4414 79.4949 22.4204V24.9366C79.0949 24.9813 78.6925 25.0024 78.29 24.9997C74.4426 24.9997 73.4071 24.1968 73.4071 21.6596V14.8951H70.8699V12.3753H73.4071V9.39514Z" fill="white"/>
<path d="M91.7347 22.0573C91.7347 23.6853 91.9241 24.4041 92.0304 24.826H89.4511C89.3559 24.3886 89.3065 23.9424 89.3038 23.4948C88.7744 24.4041 88.0778 24.9954 85.308 24.9954C82.814 24.9954 80.6577 24.5724 80.6577 21.2556C80.6577 19.9443 80.8272 17.5554 83.9979 17.3661L88.183 17.116C88.7323 17.0728 89.1764 17.0517 89.1764 16.0162C89.1764 14.7692 88.6061 14.5367 86.4288 14.5367C84.1884 14.5367 83.7408 14.9165 83.7408 16.2488H81.0866C81.1077 12.9764 83.1786 12.2109 86.2862 12.2109C89.7316 12.2109 91.7406 12.7404 91.7406 16.2699L91.7347 22.0573ZM89.1975 18.8235C89.028 19.0771 88.7534 19.291 88.0346 19.3307L84.9492 19.52C83.3002 19.6264 83.2581 20.4083 83.2581 21.1901C83.2581 22.3109 83.8915 22.6907 85.8795 22.6907C88.2041 22.6907 89.1975 21.9895 89.1975 20.3662V18.8235Z" fill="white"/>
<path d="M96.4915 12.376L99.7674 22.2258L103.044 12.376H106.046L101.48 24.8262H98.0552L93.4902 12.376H96.4915Z" fill="white"/>
<path d="M110.634 10.854H107.696V8.16602H110.634V10.854ZM110.528 24.8294H107.801V12.3757H110.528V24.8294Z" fill="white"/>
<path d="M123.845 22.0573C123.845 23.6853 124.036 24.4041 124.141 24.826H121.563C121.466 24.3887 121.417 23.9425 121.414 23.4948C120.886 24.4041 120.188 24.9954 117.42 24.9954C114.924 24.9954 112.769 24.5724 112.769 21.2556C112.769 19.9443 112.938 17.5554 116.108 17.3661L120.293 17.116C120.844 17.0728 121.288 17.0517 121.288 16.0162C121.288 14.7692 120.717 14.5367 118.539 14.5367C116.299 14.5367 115.851 14.9165 115.851 16.2488H113.191C113.212 12.9764 115.284 12.2109 118.392 12.2109C121.837 12.2109 123.845 12.7404 123.845 16.2699V22.0573ZM121.309 18.8235C121.14 19.0771 120.865 19.291 120.146 19.3307L117.06 19.52C115.411 19.6264 115.368 20.4083 115.368 21.1901C115.368 22.3109 116.003 22.6907 117.99 22.6907C120.316 22.6907 121.309 21.9895 121.309 20.3662V18.8235Z" fill="white"/>
</g>
<defs>
<clipPath id="clip0_66_334">
<rect width="124" height="32" fill="white"/>
</clipPath>
</defs>
</svg>
