<svg width="960" height="480" viewBox="0 0 960 480" fill="none" xmlns="http://www.w3.org/2000/svg">
<path d="M130.365 183.61C107.615 185.244 89.5553 195.977 80.2454 213.454C72.8254 227.36 71.9387 246.26 78.0054 261.357C85.052 278.857 100.685 291.177 121.032 295.213C126.259 296.263 130.202 296.613 136.665 296.613C149.242 296.613 159.275 294.443 168.958 289.613C185.478 281.377 196.095 266.817 198.872 248.57C199.408 245.07 199.478 235.317 199.012 231.887C196.118 211.424 183.728 195.907 164.035 188.184C154.422 184.404 142.335 182.747 130.365 183.61ZM143.222 208.67C156.895 210.49 166.858 217.91 170.592 229.087C171.805 232.727 172.202 235.34 172.202 239.703C172.202 246.89 170.638 252.233 166.928 257.787C165.435 260.027 161.538 263.923 159.298 265.417C152.952 269.663 145.532 271.763 136.899 271.787C129.759 271.787 124.345 270.667 118.722 268.03C115.245 266.397 112.609 264.553 109.949 261.87C105.609 257.53 103.042 252.677 101.735 246.47C101.245 244.043 101.175 236.063 101.642 233.52C103.532 223.044 110.369 215.017 120.845 210.98C123.412 209.977 127.029 209.067 129.899 208.67C132.932 208.25 140.165 208.25 143.222 208.67Z" fill="white"/>
<path d="M295.238 183.61C276.991 185.034 261.731 192.08 251.791 203.724C245.071 211.587 240.965 220.804 239.402 231.537C238.842 235.434 238.842 243.997 239.425 247.87C240.358 254.403 241.828 259.28 244.488 264.763C247.195 270.363 249.808 274.097 254.241 278.623C258.605 283.08 263.155 286.417 268.755 289.287C278.718 294.373 288.775 296.613 301.631 296.613C314.208 296.59 324.311 294.397 333.924 289.59C340.924 286.09 347.714 280.723 352.194 275.17C358.564 267.283 362.601 257.67 363.954 247.17C364.468 243.32 364.351 234.757 363.744 230.837C362.578 223.347 360.221 216.744 356.488 210.607C352.381 203.794 346.198 197.634 339.081 193.224C331.218 188.324 321.721 185.15 311.431 183.937C307.581 183.494 299.018 183.307 295.238 183.61ZM310.031 208.904C315.538 209.907 321.418 212.31 325.198 215.087C330.658 219.124 334.508 224.794 336.211 231.35C336.841 233.8 336.934 234.594 337.028 238.42C337.214 244.767 336.398 249.107 334.181 253.703C331.125 260.003 326.575 264.553 320.181 267.703C316.751 269.383 313.905 270.34 310.031 271.133C307.628 271.6 306.718 271.67 301.515 271.67C296.101 271.647 295.471 271.6 292.741 271.017C287.561 269.92 282.871 268.007 278.998 265.417C276.758 263.923 272.861 260.027 271.368 257.787C269.105 254.403 267.611 250.857 266.701 246.773C266.095 243.95 266.095 235.41 266.725 232.587C269.595 219.497 279.815 210.817 294.865 208.647C297.991 208.204 307.045 208.367 310.031 208.904Z" fill="white"/>
<path d="M552.534 188.534C552.674 192.71 553.07 194.717 554.284 197.4C556.85 203.047 562.287 207.41 568.377 208.647C569.87 208.95 572.04 209.02 580.93 209.02H591.663V252.187V295.353H595.583C601.347 295.353 604.52 294.77 607.763 293.137C613.2 290.407 617.33 284.877 618.38 278.927C618.683 277.13 618.73 272.463 618.73 242.947V209.02H638.377H658L657.86 205.45C657.767 203.07 657.557 201.25 657.23 199.92C655.527 192.967 650.067 187.437 642.857 185.407L641.013 184.87L596.703 184.8L552.394 184.754L552.534 188.534Z" fill="white"/>
<path d="M421.681 185.337C417.551 186.177 413.817 189.117 411.881 193.037C410.247 196.35 410.364 192.29 410.364 246.283V295.12H414.401C418.881 295.12 421.517 294.77 424.107 293.883C429.311 292.063 434.001 287.49 436.054 282.193C437.151 279.37 437.431 277.06 437.431 270.947V265.487H451.407H465.384L466.341 267.003C466.877 267.82 470.097 272.743 473.527 277.9C478.871 285.95 480.037 287.583 481.764 289.287C484.844 292.343 488.764 294.28 493.034 294.863C494.807 295.12 517.93 295.237 517.93 295.003C517.93 294.957 512.797 287.373 506.544 278.157C500.267 268.94 494.971 261.123 494.737 260.797L494.341 260.167L496.16 259.187C503.394 255.22 508.48 250.04 511.957 243.11C517.277 232.563 517.37 217.42 512.237 206.57C506.66 194.787 495.041 187.88 476.864 185.547C474.064 185.174 470.821 185.127 448.514 185.08C427.537 185.034 423.034 185.08 421.681 185.337ZM473.131 209.837C483.304 211.4 488.251 216.744 487.737 225.587C487.457 230.3 486.361 232.937 483.537 235.737C481.321 237.93 478.964 239.237 475.441 240.17C471.801 241.127 469.864 241.22 453.251 241.22H437.431V225.353V209.487H454.184C467.671 209.487 471.334 209.557 473.131 209.837Z" fill="white"/>
<path d="M798.319 162.532C782.004 161.163 765.674 164.989 751.666 173.464C737.658 181.939 726.689 194.627 720.329 209.714C713.97 224.801 712.545 241.512 716.259 257.458C719.973 273.403 728.636 287.765 741.007 298.489C753.379 309.213 768.825 315.749 785.136 317.161C801.448 318.574 817.788 314.791 831.819 306.354C845.85 297.917 856.852 285.258 863.252 270.188C869.653 255.119 871.122 238.411 867.451 222.455" stroke="white" stroke-width="25.6364" stroke-linecap="round" stroke-linejoin="round"/>
<path d="M867.2 172.479C867.2 162.574 859.171 154.545 849.267 154.545C839.362 154.545 831.333 162.574 831.333 172.479C831.333 182.383 839.362 190.412 849.267 190.412C859.171 190.412 867.2 182.383 867.2 172.479Z" fill="white"/>
<path d="M891.7 148.66H887.305V160H884.335V148.66H880V146.5H891.7V148.66ZM897.25 146.5L900.94 156.25L904.615 146.5H908.5V160H905.5V156.25L905.83 149.86L901.945 160H899.92L896.05 149.875L896.35 156.25V160H893.395V146.5H897.25Z" fill="white"/>
</svg>
